ply
format ascii 1.0
element vertex 39
property double x
property double y
property double z
element face 74
property list uchar uchar vertex_indices
end_header
-0.494999999999999995559107901499 -0.0413874231151109966964085629115 -200
-0.494999999999999995559107901499 0.0413874231000000009084160979 -200
-0.480866355004785972493408507944 -0.125316851986600003021621319022 -200
-0.480866354997726008768665906246 0.125316852013504009821787121837 -200
-0.450845059114832025226604628187 -0.209372724678484001259448632482 -200
-0.450845059006611981189394100511 0.20937272498862399827679325881 -200
-0.404523252922430021083499696033 0.289071153133462988016333383712 -200
-0.404523252781063991090348963553 -0.289071153252449974946358679517 -200
-0.343189517120469023137019348724 0.359793787905108020108713162699 -200
-0.343189516935544003395364143216 -0.359793788074322995473863784355 -200
-0.26981275608929200515717639064 -0.41759188495350302305908485323 -200
-0.269812755966678974317574102315 0.417591885026246001366700966173 -200
-0.18858395204169500769530998241 0.459889827987183974489227011873 -200
-0.188583951970679009058073916094 -0.459889828015268009586691277946 -200
-0.104160784034585993107491219689 -0.485839705995682991090944824464 -200
-0.10416078396171199460518153046 0.485839706011769012494738717578 -200
-0.0307741189559969999245403471377 0.494999999999999995559107901499 -200
-0.0307741189026270005324459333451 -0.494999999999999995559107901499 -200
0 0 1
0.0100849045556969992704088312507 -0.494999999999999995559107901499 -200
0.0100849045897920003983516679114 0.494999999999999995559107901499 -200
0.062137555078774997507906618921 0.49287812500452499175906950768 -200
0.0621375552145759998956542347059 -0.492878124990966004492776164625 -200
0.146484821838305995234108536351 0.474893355034476993825620638745 -200
0.146484821860212999222738972094 -0.474893355043605025489483750789 -200
0.229889933133993001890260643449 0.440772940913512989435929512183 -200
0.229889933136291996218503186356 -0.440772940928581991038015530648 -200
0.307765227800700980065329304125 -0.390507867152336984872817993164 -200
0.307765227980898004034315817989 0.390507867012329978884110914805 -200
0.375583330013183003259769066062 0.325826383981538014733558838998 -200
0.375583330169319995484045193734 -0.325826383836102018154434745156 -200
0.429683015914633981147119357047 -0.250061312166508009635634834922 -200
0.429683016004424989109367061246 0.250061311993802992681423802424 -200
0.467904598976019991951602605695 -0.16759724006988099831438887577 -200
0.467904598998025000877731827131 0.167597240007610004397520242492 -200
0.489834868960314973040937047699 0.0830808390746820002448203013046 -200
0.489834868989419025542275676344 -0.0830808390164750054651676691719 -200
0.494999999999999995559107901499 -0.0203414705465549995599960908521 -200
0.494999999999999995559107901499 0.0203414704883469986407273921714 -200
3 36 18 33
3 31 18 30
3 34 32 18
3 27 18 26
3 29 28 18
3 24 18 22
3 25 23 18
3 19 18 17
3 21 20 18
3 14 18 13
3 16 15 18
3 10 18 9
3 12 11 18
3 7 18 4
3 8 6 18
3 2 18 0
3 5 3 18
3 1 0 18
3 1 18 3
3 2 4 18
3 5 18 6
3 7 9 18
3 8 18 11
3 10 13 18
3 12 18 15
3 14 17 18
3 16 18 20
3 19 22 18
3 21 18 23
3 24 26 18
3 25 18 28
3 27 30 18
3 29 18 32
3 31 33 18
3 35 34 18
3 38 18 37
3 37 18 36
3 38 35 18
3 35 38 37
3 32 34 35
3 28 29 32
3 23 25 28
3 20 21 23
3 15 16 20
3 11 12 15
3 6 8 11
3 3 5 6
3 0 1 3
3 4 2 0
3 9 7 4
3 13 10 9
3 17 14 13
3 22 19 17
3 26 24 22
3 30 27 26
3 33 31 30
3 37 36 33
3 32 35 37
3 23 28 32
3 15 20 23
3 6 11 15
3 0 3 6
3 9 4 0
3 17 13 9
3 26 22 17
3 33 30 26
3 32 37 33
3 23 32 33
3 6 15 23
3 9 0 6
3 26 17 9
3 23 33 26
3 6 23 26
3 26 9 6
