ply
format ascii 1.0
element vertex 76
property double x
property double y
property double z
element face 148
property list uchar uchar vertex_indices
end_header
-0.5 -0.494999999999999995559107901499 -0.0203414706000000014562978378763
-0.5 -0.494999999999999995559107901499 0.0203414706000010006570200005172
-0.5 -0.489834869000000006078465730752 -0.0830808390000000035469085446493
-0.5 -0.489834869000000006078465730752 0.0830808390000000035469085446493
-0.5 -0.467904598999999976616237518101 -0.167597240000000008430802722614
-0.5 -0.467904598999999976616237518101 0.167597240000000008430802722614
-0.5 -0.429683015999999973200118574823 -0.250061311999999980049125269943
-0.5 -0.429683015999999973200118574823 0.250061311999999980049125269943
-0.5 -0.37558332999999999302076503227 -0.325826384000000024432353029624
-0.5 -0.37558332999999999302076503227 0.325826384000000024432353029624
-0.5 -0.307765228000001000996377342744 -0.390507867000000008506077620041
-0.5 -0.307765228000000001795655180103 0.390507867000000008506077620041
-0.5 -0.229889932999999990759221191183 0.440772940999999973676892750518
-0.5 -0.229889932999998991558499028542 -0.440772940999999973676892750518
-0.5 -0.146484822000001013719838738325 -0.474893355000000016996608565023
-0.5 -0.146484821999999986763540960055 0.474893355000000016996608565023
-0.5 -0.0621375550999999984314037249078 -0.49287812500000000026645352591
-0.5 -0.0621375550999999984314037249078 0.49287812500000000026645352591
-0.5 -0.0100849045000009993749978676192 -0.494999999999999995559107901499
-0.5 -0.0100849045000009993749978676192 0.494999999999999995559107901499
-0.5 0.0307741189000010004206409064409 -0.494999999999999995559107901499
-0.5 0.0307741189000010004206409064409 0.494999999999999995559107901499
-0.5 0.104160783999998993176738792954 -0.485839705999999982299897283156
-0.5 0.104160783999998993176738792954 0.485839705999999982299897283156
-0.5 0.188583952000000998339146462968 -0.45988982800000000050744120017
-0.5 0.188583952000000998339146462968 0.45988982800000000050744120017
-0.5 0.269812755999998987732624300406 0.417591884999999995997654878011
-0.5 0.269812755999999986933346463047 -0.417591884999999995997654878011
-0.5 0.343189516999999999491421931452 -0.359793788000000003268752379881
-0.5 0.343189517000000998692144094093 0.35979378799999900406803021724
-0.5 0.404523253000000027057581064582 -0.289071153000000025112825596807
-0.5 0.404523253000000027057581064582 0.289071153000000025112825596807
-0.5 0.450845058999999992455087749477 -0.209372725000000009520917387817
-0.5 0.450845058999999992455087749477 0.209372725000000009520917387817
-0.5 0.48086635500000002307885438313 -0.12531685200000000635078833966
-0.5 0.48086635500000002307885438313 0.125316851999999007150066177019
-0.5 0.494999999999999995559107901499 -0.0413874231000000009084160979
-0.5 0.494999999999999995559107901499 0.0413874231000010001091382605409
0.5 -0.494999999999999995559107901499 -0.0203414706000000014562978378763
0.5 -0.494999999999999995559107901499 0.0203414706000010006570200005172
0.5 -0.489834869000000006078465730752 -0.0830808390000000035469085446493
0.5 -0.489834869000000006078465730752 0.0830808390000000035469085446493
0.5 -0.467904598999999976616237518101 -0.167597240000000008430802722614
0.5 -0.467904598999999976616237518101 0.167597240000000008430802722614
0.5 -0.429683015999999973200118574823 -0.250061311999999980049125269943
0.5 -0.429683015999999973200118574823 0.250061311999999980049125269943
0.5 -0.37558332999999999302076503227 -0.325826384000000024432353029624
0.5 -0.37558332999999999302076503227 0.325826384000000024432353029624
0.5 -0.307765228000001000996377342744 0.390507867000000008506077620041
0.5 -0.307765228000000001795655180103 -0.390507867000000008506077620041
0.5 -0.229889932999999990759221191183 -0.440772940999999973676892750518
0.5 -0.229889932999998991558499028542 0.440772940999999973676892750518
0.5 -0.146484822000001013719838738325 0.474893355000000016996608565023
0.5 -0.146484821999999986763540960055 -0.474893355000000016996608565023
0.5 -0.0621375550999999984314037249078 -0.49287812500000000026645352591
0.5 -0.0621375550999999984314037249078 0.49287812500000000026645352591
0.5 -0.0100849045000009993749978676192 -0.494999999999999995559107901499
0.5 -0.0100849045000009993749978676192 0.494999999999999995559107901499
0.5 0.0307741189000010004206409064409 -0.494999999999999995559107901499
0.5 0.0307741189000010004206409064409 0.494999999999999995559107901499
0.5 0.104160783999998993176738792954 -0.485839705999999982299897283156
0.5 0.104160783999998993176738792954 0.485839705999999982299897283156
0.5 0.188583951999999999138424300327 -0.45988982800000000050744120017
0.5 0.188583952000000998339146462968 0.45988982800000000050744120017
0.5 0.269812755999998987732624300406 0.417591884999999995997654878011
0.5 0.269812755999999986933346463047 -0.417591884999999995997654878011
0.5 0.343189516999999999491421931452 -0.359793788000000003268752379881
0.5 0.343189516999999999491421931452 0.359793788000000003268752379881
0.5 0.404523253000000027057581064582 -0.289071153000000025112825596807
0.5 0.404523253000000027057581064582 0.289071153000000025112825596807
0.5 0.450845058999999992455087749477 -0.209372725000000009520917387817
0.5 0.450845058999999992455087749477 0.209372725000000009520917387817
0.5 0.48086635500000002307885438313 -0.12531685200000000635078833966
0.5 0.48086635500000002307885438313 0.12531685200000000635078833966
0.5 0.494999999999999995559107901499 -0.0413874231000010001091382605409
0.5 0.494999999999999995559107901499 0.0413874231000000009084160979
3 23 61 63
3 63 25 23
3 60 58 20
3 20 22 60
3 26 64 67
3 67 29 26
3 65 62 24
3 24 27 65
3 33 31 69
3 69 71 33
3 68 66 28
3 28 30 68
3 37 35 73
3 73 75 37
3 72 70 32
3 32 34 72
3 75 74 36
3 36 37 75
3 34 36 74
3 74 72 34
3 71 73 35
3 35 33 71
3 30 32 70
3 70 68 30
3 67 69 31
3 31 29 67
3 27 28 66
3 66 65 27
3 64 26 25
3 25 63 64
3 22 24 62
3 62 60 22
3 21 59 61
3 61 23 21
3 41 3 1
3 1 39 41
3 0 38 39
3 39 1 0
3 43 5 3
3 3 41 43
3 2 40 38
3 38 0 2
3 45 7 5
3 5 43 45
3 4 42 40
3 40 2 4
3 47 9 7
3 7 45 47
3 6 44 42
3 42 4 6
3 48 11 9
3 9 47 48
3 8 46 44
3 44 6 8
3 51 12 11
3 11 48 51
3 8 10 49
3 49 46 8
3 52 15 12
3 12 51 52
3 10 13 50
3 50 49 10
3 55 17 15
3 15 52 55
3 13 14 53
3 53 50 13
3 57 19 17
3 17 55 57
3 14 16 54
3 54 53 14
3 19 57 59
3 59 21 19
3 16 18 56
3 56 54 16
3 53 54 56
3 49 50 53
3 44 46 49
3 40 42 44
3 39 38 40
3 43 41 39
3 47 45 43
3 51 48 47
3 55 52 51
3 59 57 55
3 63 61 59
3 67 64 63
3 71 69 67
3 75 73 71
3 72 74 75
3 68 70 72
3 65 66 68
3 60 62 65
3 56 58 60
3 49 53 56
3 40 44 49
3 43 39 40
3 51 47 43
3 59 55 51
3 67 63 59
3 75 71 67
3 68 72 75
3 60 65 68
3 49 56 60
3 40 49 60
3 51 43 40
3 67 59 51
3 68 75 67
3 40 60 68
3 51 40 68
3 68 67 51
3 58 56 18
3 18 20 58
3 20 18 16
3 16 14 13
3 13 10 8
3 8 6 4
3 4 2 0
3 0 1 3
3 3 5 7
3 7 9 11
3 11 12 15
3 15 17 19
3 19 21 23
3 23 25 26
3 26 29 31
3 31 33 35
3 35 37 36
3 36 34 32
3 32 30 28
3 28 27 24
3 24 22 20
3 20 16 13
3 13 8 4
3 4 0 3
3 3 7 11
3 11 15 19
3 19 23 26
3 26 31 35
3 35 36 32
3 32 28 24
3 24 20 13
3 24 13 4
3 4 3 11
3 11 19 26
3 26 35 32
3 32 24 4
3 32 4 11
3 11 26 32
