ply
format ascii 1.0
element vertex 76
property double x
property double y
property double z
element face 148
property list uchar uchar vertex_indices
end_header
-0.494999999999999995559107901499 -0.0413874231000010001091382605409 -0.5
-0.494999999999999995559107901499 -0.0413874231000000009084160979 0.5
-0.494999999999999995559107901499 0.0413874231000000009084160979 -0.5
-0.494999999999999995559107901499 0.0413874231000010001091382605409 0.5
-0.48086635500000002307885438313 -0.12531685200000000635078833966 0.5
-0.48086635500000002307885438313 -0.125316851999999007150066177019 -0.5
-0.48086635500000002307885438313 0.12531685200000000635078833966 -0.5
-0.48086635500000002307885438313 0.12531685200000000635078833966 0.5
-0.450845058999999992455087749477 -0.209372725000000009520917387817 -0.5
-0.450845058999999992455087749477 -0.209372725000000009520917387817 0.5
-0.450845058999999992455087749477 0.209372725000000009520917387817 -0.5
-0.450845058999999992455087749477 0.209372725000000009520917387817 0.5
-0.404523253000000027057581064582 -0.289071153000000025112825596807 -0.5
-0.404523253000000027057581064582 -0.289071153000000025112825596807 0.5
-0.404523253000000027057581064582 0.289071153000000025112825596807 -0.5
-0.404523253000000027057581064582 0.289071153000000025112825596807 0.5
-0.343189517000000998692144094093 -0.35979378799999900406803021724 -0.5
-0.343189516999999999491421931452 -0.359793788000000003268752379881 0.5
-0.343189516999999999491421931452 0.359793788000000003268752379881 -0.5
-0.343189516999999999491421931452 0.359793788000000003268752379881 0.5
-0.269812755999999986933346463047 0.417591884999999995997654878011 -0.5
-0.269812755999999986933346463047 0.417591884999999995997654878011 0.5
-0.269812755999998987732624300406 -0.417591884999999995997654878011 -0.5
-0.269812755999998987732624300406 -0.417591884999999995997654878011 0.5
-0.188583952000000998339146462968 -0.45988982800000000050744120017 -0.5
-0.188583952000000998339146462968 -0.45988982800000000050744120017 0.5
-0.188583952000000998339146462968 0.45988982800000000050744120017 -0.5
-0.188583951999999999138424300327 0.45988982800000000050744120017 0.5
-0.104160783999998993176738792954 -0.485839705999999982299897283156 -0.5
-0.104160783999998993176738792954 -0.485839705999999982299897283156 0.5
-0.104160783999998993176738792954 0.485839705999999982299897283156 -0.5
-0.104160783999998993176738792954 0.485839705999999982299897283156 0.5
-0.0307741189000010004206409064409 -0.494999999999999995559107901499 -0.5
-0.0307741189000010004206409064409 -0.494999999999999995559107901499 0.5
-0.0307741189000010004206409064409 0.494999999999999995559107901499 -0.5
-0.0307741189000010004206409064409 0.494999999999999995559107901499 0.5
0.0100849045000009993749978676192 -0.494999999999999995559107901499 -0.5
0.0100849045000009993749978676192 -0.494999999999999995559107901499 0.5
0.0100849045000009993749978676192 0.494999999999999995559107901499 -0.5
0.0100849045000009993749978676192 0.494999999999999995559107901499 0.5
0.0621375550999999984314037249078 -0.49287812500000000026645352591 -0.5
0.0621375550999999984314037249078 -0.49287812500000000026645352591 0.5
0.0621375550999999984314037249078 0.49287812500000000026645352591 -0.5
0.0621375550999999984314037249078 0.49287812500000000026645352591 0.5
0.146484821999999986763540960055 -0.474893355000000016996608565023 -0.5
0.146484821999999986763540960055 0.474893355000000016996608565023 0.5
0.146484822000001013719838738325 -0.474893355000000016996608565023 0.5
0.146484822000001013719838738325 0.474893355000000016996608565023 -0.5
0.229889932999998991558499028542 -0.440772940999999973676892750518 0.5
0.229889932999998991558499028542 0.440772940999999973676892750518 -0.5
0.229889932999999990759221191183 -0.440772940999999973676892750518 -0.5
0.229889932999999990759221191183 0.440772940999999973676892750518 0.5
0.307765228000000001795655180103 -0.390507867000000008506077620041 -0.5
0.307765228000000001795655180103 0.390507867000000008506077620041 0.5
0.307765228000001000996377342744 -0.390507867000000008506077620041 0.5
0.307765228000001000996377342744 0.390507867000000008506077620041 -0.5
0.37558332999999999302076503227 -0.325826384000000024432353029624 -0.5
0.37558332999999999302076503227 -0.325826384000000024432353029624 0.5
0.37558332999999999302076503227 0.325826384000000024432353029624 -0.5
0.37558332999999999302076503227 0.325826384000000024432353029624 0.5
0.429683015999999973200118574823 -0.250061311999999980049125269943 -0.5
0.429683015999999973200118574823 -0.250061311999999980049125269943 0.5
0.429683015999999973200118574823 0.250061311999999980049125269943 -0.5
0.429683015999999973200118574823 0.250061311999999980049125269943 0.5
0.467904598999999976616237518101 -0.167597240000000008430802722614 -0.5
0.467904598999999976616237518101 -0.167597240000000008430802722614 0.5
0.467904598999999976616237518101 0.167597240000000008430802722614 -0.5
0.467904598999999976616237518101 0.167597240000000008430802722614 0.5
0.489834869000000006078465730752 -0.0830808390000000035469085446493 -0.5
0.489834869000000006078465730752 -0.0830808390000000035469085446493 0.5
0.489834869000000006078465730752 0.0830808390000000035469085446493 -0.5
0.489834869000000006078465730752 0.0830808390000000035469085446493 0.5
0.494999999999999995559107901499 -0.0203414706000010006570200005172 -0.5
0.494999999999999995559107901499 -0.0203414706000010006570200005172 0.5
0.494999999999999995559107901499 0.0203414706000000014562978378763 -0.5
0.494999999999999995559107901499 0.0203414706000000014562978378763 0.5
3 28 29 25
3 25 24 28
3 31 35 34
3 34 30 31
3 22 23 17
3 17 16 22
3 21 27 26
3 26 20 21
3 12 13 9
3 9 8 12
3 19 18 14
3 14 15 19
3 5 4 1
3 1 0 5
3 11 10 6
3 6 7 11
3 3 2 0
3 0 1 3
3 2 3 7
3 7 6 2
3 4 5 8
3 8 9 4
3 10 11 15
3 15 14 10
3 13 12 16
3 16 17 13
3 20 18 19
3 19 21 20
3 23 22 24
3 24 25 23
3 30 26 27
3 27 31 30
3 32 33 29
3 29 28 32
3 73 69 68
3 68 72 73
3 72 74 75
3 75 73 72
3 69 65 64
3 64 68 69
3 74 70 71
3 71 75 74
3 65 61 60
3 60 64 65
3 70 66 67
3 67 71 70
3 61 57 56
3 56 60 61
3 66 62 63
3 63 67 66
3 54 52 56
3 56 57 54
3 62 58 59
3 59 63 62
3 48 50 52
3 52 54 48
3 58 55 53
3 53 59 58
3 46 44 50
3 50 48 46
3 55 49 51
3 51 53 55
3 41 40 44
3 44 46 41
3 49 47 45
3 45 51 49
3 37 36 40
3 40 41 37
3 47 42 43
3 43 45 47
3 36 37 33
3 33 32 36
3 42 38 39
3 39 43 42
3 43 39 35
3 35 31 27
3 27 21 19
3 19 15 11
3 11 7 3
3 3 1 4
3 4 9 13
3 13 17 23
3 23 25 29
3 29 33 37
3 37 41 46
3 46 48 54
3 54 57 61
3 61 65 69
3 69 73 75
3 75 71 67
3 67 63 59
3 59 53 51
3 51 45 43
3 43 35 27
3 27 19 11
3 11 3 4
3 4 13 23
3 23 29 37
3 37 46 54
3 54 61 69
3 69 75 67
3 67 59 51
3 51 43 27
3 51 27 11
3 11 4 23
3 23 37 54
3 54 69 67
3 67 51 11
3 67 11 23
3 23 54 67
3 35 39 38
3 38 34 35
3 30 34 38
3 20 26 30
3 14 18 20
3 6 10 14
3 0 2 6
3 8 5 0
3 16 12 8
3 24 22 16
3 32 28 24
3 40 36 32
3 50 44 40
3 56 52 50
3 64 60 56
3 72 68 64
3 70 74 72
3 62 66 70
3 55 58 62
3 47 49 55
3 38 42 47
3 20 30 38
3 6 14 20
3 8 0 6
3 24 16 8
3 40 32 24
3 56 50 40
3 72 64 56
3 62 70 72
3 47 55 62
3 20 38 47
3 6 20 47
3 24 8 6
3 56 40 24
3 62 72 56
3 6 47 62
3 24 6 62
3 62 56 24
