ply
format ascii 1.0
element vertex 76
property double x
property double y
property double z
element face 148
property list uchar uchar vertex_indices
end_header
-0.494999999999999995559107901499 -0.5 -0.0413874231000000009084160979
-0.494999999999999995559107901499 -0.5 0.0413874231000010001091382605409
-0.494999999999999995559107901499 0.5 -0.0413874231000010001091382605409
-0.494999999999999995559107901499 0.5 0.0413874231000000009084160979
-0.48086635500000002307885438313 -0.5 -0.12531685200000000635078833966
-0.48086635500000002307885438313 -0.5 0.125316851999999007150066177019
-0.48086635500000002307885438313 0.5 -0.12531685200000000635078833966
-0.48086635500000002307885438313 0.5 0.12531685200000000635078833966
-0.450845058999999992455087749477 -0.5 -0.209372725000000009520917387817
-0.450845058999999992455087749477 -0.5 0.209372725000000009520917387817
-0.450845058999999992455087749477 0.5 -0.209372725000000009520917387817
-0.450845058999999992455087749477 0.5 0.209372725000000009520917387817
-0.404523253000000027057581064582 -0.5 -0.289071153000000025112825596807
-0.404523253000000027057581064582 -0.5 0.289071153000000025112825596807
-0.404523253000000027057581064582 0.5 -0.289071153000000025112825596807
-0.404523253000000027057581064582 0.5 0.289071153000000025112825596807
-0.343189517000000998692144094093 -0.5 0.35979378799999900406803021724
-0.343189516999999999491421931452 -0.5 -0.359793788000000003268752379881
-0.343189516999999999491421931452 0.5 -0.359793788000000003268752379881
-0.343189516999999999491421931452 0.5 0.359793788000000003268752379881
-0.269812755999999986933346463047 -0.5 -0.417591884999999995997654878011
-0.269812755999999986933346463047 0.5 -0.417591884999999995997654878011
-0.269812755999998987732624300406 -0.5 0.417591884999999995997654878011
-0.269812755999998987732624300406 0.5 0.417591884999999995997654878011
-0.188583952000000998339146462968 -0.5 -0.45988982800000000050744120017
-0.188583952000000998339146462968 -0.5 0.45988982800000000050744120017
-0.188583952000000998339146462968 0.5 0.45988982800000000050744120017
-0.188583951999999999138424300327 0.5 -0.45988982800000000050744120017
-0.104160783999998993176738792954 -0.5 -0.485839705999999982299897283156
-0.104160783999998993176738792954 -0.5 0.485839705999999982299897283156
-0.104160783999998993176738792954 0.5 -0.485839705999999982299897283156
-0.104160783999998993176738792954 0.5 0.485839705999999982299897283156
-0.0307741189000010004206409064409 -0.5 -0.494999999999999995559107901499
-0.0307741189000010004206409064409 -0.5 0.494999999999999995559107901499
-0.0307741189000010004206409064409 0.5 -0.494999999999999995559107901499
-0.0307741189000010004206409064409 0.5 0.494999999999999995559107901499
0.0100849045000009993749978676192 -0.5 -0.494999999999999995559107901499
0.0100849045000009993749978676192 -0.5 0.494999999999999995559107901499
0.0100849045000009993749978676192 0.5 -0.494999999999999995559107901499
0.0100849045000009993749978676192 0.5 0.494999999999999995559107901499
0.0621375550999999984314037249078 -0.5 -0.49287812500000000026645352591
0.0621375550999999984314037249078 -0.5 0.49287812500000000026645352591
0.0621375550999999984314037249078 0.5 -0.49287812500000000026645352591
0.0621375550999999984314037249078 0.5 0.49287812500000000026645352591
0.146484821999999986763540960055 -0.5 0.474893355000000016996608565023
0.146484821999999986763540960055 0.5 -0.474893355000000016996608565023
0.146484822000001013719838738325 -0.5 -0.474893355000000016996608565023
0.146484822000001013719838738325 0.5 0.474893355000000016996608565023
0.229889932999998991558499028542 -0.5 -0.440772940999999973676892750518
0.229889932999998991558499028542 0.5 0.440772940999999973676892750518
0.229889932999999990759221191183 -0.5 0.440772940999999973676892750518
0.229889932999999990759221191183 0.5 -0.440772940999999973676892750518
0.307765228000000001795655180103 -0.5 0.390507867000000008506077620041
0.307765228000000001795655180103 0.5 -0.390507867000000008506077620041
0.307765228000001000996377342744 -0.5 -0.390507867000000008506077620041
0.307765228000001000996377342744 0.5 0.390507867000000008506077620041
0.37558332999999999302076503227 -0.5 -0.325826384000000024432353029624
0.37558332999999999302076503227 -0.5 0.325826384000000024432353029624
0.37558332999999999302076503227 0.5 -0.325826384000000024432353029624
0.37558332999999999302076503227 0.5 0.325826384000000024432353029624
0.429683015999999973200118574823 -0.5 -0.250061311999999980049125269943
0.429683015999999973200118574823 -0.5 0.250061311999999980049125269943
0.429683015999999973200118574823 0.5 -0.250061311999999980049125269943
0.429683015999999973200118574823 0.5 0.250061311999999980049125269943
0.467904598999999976616237518101 -0.5 -0.167597240000000008430802722614
0.467904598999999976616237518101 -0.5 0.167597240000000008430802722614
0.467904598999999976616237518101 0.5 -0.167597240000000008430802722614
0.467904598999999976616237518101 0.5 0.167597240000000008430802722614
0.489834869000000006078465730752 -0.5 -0.0830808390000000035469085446493
0.489834869000000006078465730752 -0.5 0.0830808390000000035469085446493
0.489834869000000006078465730752 0.5 -0.0830808390000000035469085446493
0.489834869000000006078465730752 0.5 0.0830808390000000035469085446493
0.494999999999999995559107901499 -0.5 -0.0203414706000000014562978378763
0.494999999999999995559107901499 -0.5 0.0203414706000010006570200005172
0.494999999999999995559107901499 0.5 -0.0203414706000000014562978378763
0.494999999999999995559107901499 0.5 0.0203414706000010006570200005172
3 29 31 26
3 26 25 29
3 30 34 32
3 32 28 30
3 22 23 19
3 19 16 22
3 21 27 24
3 24 20 21
3 13 15 11
3 11 9 13
3 18 17 12
3 12 14 18
3 5 7 3
3 3 1 5
3 10 8 4
3 4 6 10
3 2 0 1
3 1 3 2
3 0 2 6
3 6 4 0
3 7 5 9
3 9 11 7
3 8 10 14
3 14 12 8
3 15 13 16
3 16 19 15
3 20 17 18
3 18 21 20
3 23 22 25
3 25 26 23
3 28 24 27
3 27 30 28
3 33 35 31
3 31 29 33
3 75 71 69
3 69 73 75
3 73 72 74
3 74 75 73
3 71 67 65
3 65 69 71
3 72 68 70
3 70 74 72
3 67 63 61
3 61 65 67
3 68 64 66
3 66 70 68
3 63 59 57
3 57 61 63
3 64 60 62
3 62 66 64
3 55 52 57
3 57 59 55
3 60 56 58
3 58 62 60
3 49 50 52
3 52 55 49
3 56 54 53
3 53 58 56
3 47 44 50
3 50 49 47
3 54 48 51
3 51 53 54
3 43 41 44
3 44 47 43
3 48 46 45
3 45 51 48
3 39 37 41
3 41 43 39
3 46 40 42
3 42 45 46
3 37 39 35
3 35 33 37
3 40 36 38
3 38 42 40
3 45 42 38
3 53 51 45
3 62 58 53
3 70 66 62
3 75 74 70
3 67 71 75
3 59 63 67
3 49 55 59
3 43 47 49
3 35 39 43
3 26 31 35
3 19 23 26
3 11 15 19
3 3 7 11
3 6 2 3
3 14 10 6
3 21 18 14
3 30 27 21
3 38 34 30
3 53 45 38
3 70 62 53
3 67 75 70
3 49 59 67
3 35 43 49
3 19 26 35
3 3 11 19
3 14 6 3
3 30 21 14
3 53 38 30
3 70 53 30
3 49 67 70
3 19 35 49
3 14 3 19
3 70 30 14
3 49 70 14
3 14 19 49
3 34 38 36
3 36 32 34
3 32 36 40
3 40 46 48
3 48 54 56
3 56 60 64
3 64 68 72
3 72 73 69
3 69 65 61
3 61 57 52
3 52 50 44
3 44 41 37
3 37 33 29
3 29 25 22
3 22 16 13
3 13 9 5
3 5 1 0
3 0 4 8
3 8 12 17
3 17 20 24
3 24 28 32
3 32 40 48
3 48 56 64
3 64 72 69
3 69 61 52
3 52 44 37
3 37 29 22
3 22 13 5
3 5 0 8
3 8 17 24
3 24 32 48
3 24 48 64
3 64 69 52
3 52 37 22
3 22 5 8
3 8 24 64
3 8 64 52
3 52 22 8
