ply
format ascii 1.0
element vertex 12
property float32 x
property float32 y
property float32 z
property float32 nx
property float32 ny
property float32 nz
element face 20
property list uint8 int32 vertex_indices
end_header
-0.276385 -0.850640 -0.447215 -0.276376 -0.850642 -0.447188 
0.000000 0.000000 -1.000000 0.000000 0.000000 -1.000000 
0.723600 -0.525720 -0.447215 0.723594 -0.525712 -0.447188 
0.723600 0.525720 -0.447215 0.723594 0.525712 -0.447188 
-0.894425 0.000000 -0.447215 -0.894406 0.000000 -0.447188 
-0.276385 0.850640 -0.447215 -0.276376 0.850642 -0.447188 
0.894425 0.000000 0.447215 0.894406 0.000000 0.447188 
0.276385 -0.850640 0.447215 0.276376 -0.850642 0.447188 
-0.723600 -0.525720 0.447215 -0.723594 -0.525712 0.447188 
-0.723600 0.525720 0.447215 -0.723594 0.525712 0.447188 
0.276385 0.850640 0.447215 0.276376 0.850642 0.447188 
0.000000 0.000000 1.000000 0.000000 0.000000 1.000000 
3 0 1 2 
3 2 1 3 
3 4 1 0 
3 5 1 4 
3 3 1 5 
3 2 3 6 
3 0 2 7 
3 4 0 8 
3 5 4 9 
3 3 5 10 
3 6 7 2 
3 7 8 0 
3 8 9 4 
3 9 10 5 
3 10 6 3 
3 7 6 11 
3 8 7 11 
3 9 8 11 
3 10 9 11 
3 6 10 11 
