ply
format ascii 1.0
element vertex 42
property float32 x
property float32 y
property float32 z
property float32 nx
property float32 ny
property float32 nz
element face 80
property list uint8 int32 vertex_indices
end_header
0.601497 -0.437008 -1.203007 0.425306 -0.309000 -0.850642 
0.371753 -1.144115 -0.743505 0.262856 -0.808985 -0.525712 
-0.229747 -0.707100 -1.203007 -0.162450 -0.499985 -0.850642 
0.601497 0.437008 -1.203007 0.425306 0.309000 -0.850642 
1.202998 0.000000 -0.743503 0.850642 0.000000 -0.525712 
-0.973247 -0.707102 -0.743503 -0.688162 -0.499985 -0.525712 
-0.743494 0.000000 -1.203003 -0.525712 0.000000 -0.850642 
-0.973247 0.707102 -0.743503 -0.688162 0.499985 -0.525712 
-0.229747 0.707100 -1.203007 -0.162450 0.499985 -0.850642 
0.371753 1.144115 -0.743505 0.262856 0.808985 -0.525712 
1.344999 0.437010 0.000000 0.951048 0.309000 0.000000 
1.344999 -0.437010 0.000000 0.951048 -0.309000 0.000000 
0.831254 -1.144122 0.000000 0.587756 -0.809015 0.000000 
0.000000 -1.414214 0.000000 0.000000 -1.000000 0.000000 
-0.831254 -1.144122 0.000000 -0.587756 -0.809015 0.000000 
-1.344999 -0.437010 0.000000 -0.951048 -0.309000 0.000000 
-1.344999 0.437010 0.000000 -0.951048 0.309000 0.000000 
-0.831254 1.144122 0.000000 -0.587756 0.809015 0.000000 
0.000000 1.414214 0.000000 0.000000 1.000000 0.000000 
0.831254 1.144122 0.000000 0.587756 0.809015 0.000000 
0.973247 -0.707102 0.743503 0.688162 -0.499985 0.525712 
-0.371753 -1.144115 0.743505 -0.262856 -0.808985 0.525712 
-1.202998 0.000000 0.743503 -0.850642 0.000000 0.525712 
-0.371753 1.144115 0.743505 -0.262856 0.808985 0.525712 
0.973247 0.707102 0.743503 0.688162 0.499985 0.525712 
0.743494 0.000000 1.203003 0.525712 0.000000 0.850642 
0.229747 -0.707100 1.203007 0.162450 -0.499985 0.850642 
-0.601497 -0.437008 1.203007 -0.425306 -0.309000 0.850642 
-0.601497 0.437008 1.203007 -0.425306 0.309000 0.850642 
0.229747 0.707100 1.203007 0.162450 0.499985 0.850642 
0.390867 1.202987 0.632457 0.276376 0.850642 0.447188 
0.000000 0.000000 1.414214 0.000000 0.000000 1.000000 
1.264908 0.000000 0.632457 0.894406 0.000000 0.447188 
-1.023325 0.743480 0.632457 -0.723594 0.525712 0.447188 
-1.023325 -0.743480 0.632457 -0.723594 -0.525712 0.447188 
0.390867 -1.202987 0.632457 0.276376 -0.850642 0.447188 
1.023325 0.743480 -0.632457 0.723594 0.525712 -0.447188 
-0.390867 1.202987 -0.632457 -0.276376 0.850642 -0.447188 
-1.264908 0.000000 -0.632457 -0.894406 0.000000 -0.447188 
-0.390867 -1.202987 -0.632457 -0.276376 -0.850642 -0.447188 
1.023325 -0.743480 -0.632457 0.723594 -0.525712 -0.447188 
0.000000 0.000000 -1.414214 0.000000 0.000000 -1.000000 
3 0 1 2 
3 0 3 4 
3 2 5 6 
3 6 7 8 
3 8 9 3 
3 4 10 11 
3 1 12 13 
3 5 14 15 
3 7 16 17 
3 9 18 19 
3 11 20 12 
3 13 21 14 
3 15 22 16 
3 17 23 18 
3 19 24 10 
3 20 25 26 
3 21 26 27 
3 22 27 28 
3 23 28 29 
3 24 29 25 
3 30 29 24 
3 31 25 29 
3 32 24 25 
3 33 28 23 
3 31 29 28 
3 30 23 29 
3 34 27 22 
3 31 28 27 
3 33 22 28 
3 35 26 21 
3 31 27 26 
3 34 21 27 
3 32 25 20 
3 31 26 25 
3 35 20 26 
3 36 19 10 
3 32 10 24 
3 30 24 19 
3 37 17 18 
3 30 18 23 
3 33 23 17 
3 38 15 16 
3 33 16 22 
3 34 22 15 
3 39 13 14 
3 34 14 21 
3 35 21 13 
3 40 11 12 
3 35 12 20 
3 32 20 11 
3 37 18 9 
3 30 19 18 
3 36 9 19 
3 38 16 7 
3 33 17 16 
3 37 7 17 
3 39 14 5 
3 34 15 14 
3 38 5 15 
3 40 12 1 
3 35 13 12 
3 39 1 13 
3 36 10 4 
3 32 11 10 
3 40 4 11 
3 41 8 3 
3 36 3 9 
3 37 9 8 
3 41 6 8 
3 37 8 7 
3 38 7 6 
3 41 2 6 
3 38 6 5 
3 39 5 2 
3 41 3 0 
3 36 4 3 
3 40 0 4 
3 41 0 2 
3 39 2 1 
3 40 1 0 
