ply
format ascii 1.0
element vertex 162
property float32 x
property float32 y
property float32 z
property float32 nx
property float32 ny
property float32 nz
element face 320
property list uint8 int32 vertex_indices
end_header
0.361804 -0.587779 -0.723612 0.350017 -0.587725 -0.729423 
0.512753 -0.693775 -0.505727 0.523881 -0.686819 -0.503769 
0.262869 -0.809012 -0.525738 0.262856 -0.808985 -0.525712 
0.597194 -0.433882 -0.674615 0.604358 -0.439100 -0.664754 
0.425323 -0.309011 -0.850654 0.425306 -0.309000 -0.850642 
0.723600 -0.525720 -0.447215 0.723594 -0.525712 -0.447218 
0.138197 -0.425320 -0.894430 0.141789 -0.436445 -0.888455 
0.052790 -0.688185 -0.723612 0.062288 -0.681204 -0.729423 
-0.162456 -0.499995 -0.850654 -0.162450 -0.499985 -0.850642 
-0.228103 -0.702042 -0.674615 -0.230842 -0.710471 -0.664754 
-0.007026 -0.862665 -0.505728 -0.020112 -0.863582 -0.503769 
-0.276385 -0.850640 -0.447215 -0.276376 -0.850642 -0.447218 
-0.084442 -0.259889 -0.961939 -0.080477 -0.247719 -0.965453 
0.221076 -0.160619 -0.961939 0.210730 -0.153081 -0.965453 
0.000000 0.000000 -1.000000 0.000000 0.000000 -1.000000 
0.670817 -0.162457 -0.723611 0.667104 -0.151250 -0.729423 
0.850648 0.000000 -0.525736 0.850642 0.000000 -0.525712 
0.818272 -0.273262 -0.505726 0.815088 -0.285989 -0.503769 
0.447210 0.000000 -0.894429 0.458907 0.000000 -0.888455 
0.670817 0.162457 -0.723611 0.667104 0.151250 -0.729423 
0.425323 0.309011 -0.850654 0.425306 0.309000 -0.850642 
0.597194 0.433882 -0.674615 0.604358 0.439100 -0.664754 
0.723600 0.525720 -0.447215 0.723594 0.525712 -0.447218 
0.818272 0.273262 -0.505726 0.815088 0.285989 -0.503769 
0.221076 0.160619 -0.961939 0.210730 0.153081 -0.965453 
-0.447211 -0.525727 -0.723612 -0.450789 -0.514481 -0.729423 
-0.501373 -0.702043 -0.505727 -0.491317 -0.710471 -0.503769 
-0.688189 -0.499997 -0.525736 -0.688162 -0.499985 -0.525712 
-0.361800 -0.262863 -0.894429 -0.371258 -0.269723 -0.888455 
-0.638195 -0.262864 -0.723609 -0.628620 -0.269723 -0.729423 
-0.525730 0.000000 -0.850652 -0.525712 0.000000 -0.850642 
-0.738174 0.000000 -0.674610 -0.747032 0.000000 -0.664754 
-0.822618 -0.259890 -0.505724 -0.827540 -0.247719 -0.503769 
-0.894425 0.000000 -0.447215 -0.894406 0.000000 -0.447188 
-0.273266 0.000000 -0.961939 -0.260475 0.000000 -0.965453 
-0.638195 0.262864 -0.723609 -0.628620 0.269723 -0.729423 
-0.822618 0.259890 -0.505724 -0.827540 0.247719 -0.503769 
-0.688189 0.499997 -0.525736 -0.688162 0.499985 -0.525712 
-0.361800 0.262863 -0.894429 -0.371258 0.269723 -0.888455 
-0.447211 0.525727 -0.723612 -0.450789 0.514481 -0.729423 
-0.162456 0.499995 -0.850654 -0.162450 0.499985 -0.850642 
-0.228103 0.702042 -0.674615 -0.230842 0.710471 -0.664754 
-0.501373 0.702043 -0.505727 -0.491317 0.710471 -0.503769 
-0.276385 0.850640 -0.447215 -0.276376 0.850642 -0.447218 
-0.084442 0.259889 -0.961939 -0.080477 0.247719 -0.965453 
0.052790 0.688185 -0.723612 0.062288 0.681204 -0.729423 
-0.007026 0.862665 -0.505728 -0.020112 0.863582 -0.503769 
0.262869 0.809012 -0.525738 0.262856 0.808985 -0.525712 
0.138197 0.425320 -0.894430 0.141789 0.436445 -0.888455 
0.361804 0.587779 -0.723612 0.350017 0.587725 -0.729423 
0.512753 0.693775 -0.505727 0.523881 0.686819 -0.503769 
0.947213 -0.162458 -0.276396 0.950743 -0.151250 -0.270486 
0.951058 -0.309013 0.000000 0.951048 -0.309000 0.000000 
0.870465 -0.433883 -0.232456 0.864834 -0.439100 -0.243294 
0.947213 0.162458 -0.276396 0.950743 0.151250 -0.270486 
1.000000 0.000000 0.000000 0.999908 0.000000 -0.013123 
0.951058 0.309013 0.000000 0.951048 0.309000 0.000000 
0.959253 0.160620 0.232455 0.957793 0.153081 0.243263 
0.894425 0.000000 0.447215 0.894406 0.000000 0.447188 
0.959253 -0.160620 0.232455 0.957793 -0.153081 0.243263 
0.870465 0.433883 -0.232456 0.864834 0.439100 -0.243294 
0.138199 -0.951055 -0.276397 0.149937 -0.950957 -0.270486 
0.000000 -1.000000 0.000000 0.000000 -1.000000 0.000000 
-0.143661 -0.961938 -0.232456 -0.150334 -0.958220 -0.243294 
0.447216 -0.850648 -0.276397 0.437666 -0.857479 -0.270486 
0.309017 -0.951056 0.000000 0.308969 -0.950957 -0.013123 
0.587786 -0.809017 0.000000 0.587756 -0.809015 0.000000 
0.449185 -0.862668 0.232457 0.441572 -0.863582 0.243294 
0.276385 -0.850640 0.447215 0.276376 -0.850642 0.447218 
0.143661 -0.961938 0.232456 0.150334 -0.958220 0.243294 
0.681641 -0.693779 -0.232457 0.684866 -0.686819 -0.243294 
-0.861804 -0.425322 -0.276396 -0.858089 -0.436445 -0.270486 
-0.951058 -0.309013 0.000000 -0.951048 -0.309000 0.000000 
-0.959253 -0.160620 -0.232455 -0.957793 -0.153081 -0.243263 
-0.670820 -0.688190 -0.276396 -0.680258 -0.681204 -0.270486 
-0.809018 -0.587783 0.000000 -0.808924 -0.587725 -0.013123 
-0.587786 -0.809017 0.000000 -0.587756 -0.809015 0.000000 
-0.681641 -0.693779 0.232457 -0.684866 -0.686819 0.243294 
-0.723600 -0.525720 0.447215 -0.723594 -0.525712 0.447218 
-0.870465 -0.433883 0.232456 -0.864834 -0.439100 0.243294 
-0.449185 -0.862668 -0.232457 -0.441572 -0.863582 -0.243294 
-0.670820 0.688190 -0.276396 -0.680258 0.681204 -0.270486 
-0.587786 0.809017 0.000000 -0.587756 0.809015 0.000000 
-0.449185 0.862668 -0.232457 -0.441572 0.863582 -0.243294 
-0.861804 0.425322 -0.276396 -0.858089 0.436445 -0.270486 
-0.809018 0.587783 0.000000 -0.808924 0.587725 -0.013123 
-0.951058 0.309013 0.000000 -0.951048 0.309000 0.000000 
-0.870465 0.433883 0.232456 -0.864834 0.439100 0.243294 
-0.723600 0.525720 0.447215 -0.723594 0.525712 0.447218 
-0.681641 0.693779 0.232457 -0.684866 0.686819 0.243294 
-0.959253 0.160620 -0.232455 -0.957793 0.153081 -0.243263 
0.447216 0.850648 -0.276397 0.437666 0.857479 -0.270486 
0.587786 0.809017 0.000000 0.587756 0.809015 0.000000 
0.681641 0.693779 -0.232457 0.684866 0.686819 -0.243294 
0.138199 0.951055 -0.276397 0.149937 0.950957 -0.270486 
0.309017 0.951056 0.000000 0.308969 0.950957 -0.013123 
0.000000 1.000000 0.000000 0.000000 1.000000 0.000000 
0.143661 0.961938 0.232456 0.150334 0.958220 0.243294 
0.276385 0.850640 0.447215 0.276376 0.850642 0.447218 
0.449185 0.862668 0.232457 0.441572 0.863582 0.243294 
-0.143661 0.961938 -0.232456 -0.150334 0.958220 -0.243294 
0.861804 -0.425322 0.276396 0.858089 -0.436445 0.270486 
0.822618 -0.259890 0.505724 0.827540 -0.247719 0.503769 
0.688189 -0.499997 0.525736 0.688162 -0.499985 0.525712 
0.809018 -0.587783 0.000000 0.808924 -0.587725 0.013123 
0.670820 -0.688190 0.276396 0.680258 -0.681204 0.270486 
0.501373 -0.702043 0.505727 0.491317 -0.710471 0.503769 
-0.138199 -0.951055 0.276397 -0.149937 -0.950957 0.270486 
0.007026 -0.862665 0.505728 0.020112 -0.863582 0.503769 
-0.262869 -0.809012 0.525738 -0.262856 -0.808985 0.525712 
-0.309017 -0.951056 0.000000 -0.308969 -0.950957 0.013123 
-0.447216 -0.850648 0.276397 -0.437666 -0.857479 0.270486 
-0.512753 -0.693775 0.505727 -0.523881 -0.686819 0.503769 
-0.947213 -0.162458 0.276396 -0.950743 -0.151250 0.270486 
-0.818272 -0.273262 0.505726 -0.815088 -0.285989 0.503769 
-0.850648 0.000000 0.525736 -0.850642 0.000000 0.525712 
-1.000000 0.000000 0.000000 -0.999908 0.000000 0.013123 
-0.947213 0.162458 0.276396 -0.950743 0.151250 0.270486 
-0.818272 0.273262 0.505726 -0.815088 0.285989 0.503769 
-0.447216 0.850648 0.276397 -0.437666 0.857479 0.270486 
-0.512753 0.693775 0.505727 -0.523881 0.686819 0.503769 
-0.262869 0.809012 0.525738 -0.262856 0.808985 0.525712 
-0.309017 0.951056 0.000000 -0.308969 0.950957 0.013123 
-0.138199 0.951055 0.276397 -0.149937 0.950957 0.270486 
0.007026 0.862665 0.505728 0.020112 0.863582 0.503769 
0.670820 0.688190 0.276396 0.680258 0.681204 0.270486 
0.501373 0.702043 0.505727 0.491317 0.710471 0.503769 
0.688189 0.499997 0.525736 0.688162 0.499985 0.525712 
0.809018 0.587783 0.000000 0.808924 0.587725 0.013123 
0.861804 0.425322 0.276396 0.858089 0.436445 0.270486 
0.822618 0.259890 0.505724 0.827540 0.247719 0.503769 
0.447211 -0.525727 0.723612 0.450789 -0.514481 0.729423 
0.162456 -0.499995 0.850654 0.162450 -0.499985 0.850642 
0.228103 -0.702042 0.674615 0.230842 -0.710471 0.664754 
0.638195 -0.262864 0.723609 0.628620 -0.269723 0.729423 
0.361800 -0.262863 0.894429 0.371258 -0.269723 0.888455 
0.525730 0.000000 0.850652 0.525712 0.000000 0.850642 
0.273266 0.000000 0.961939 0.260475 0.000000 0.965453 
0.000000 0.000000 1.000000 0.000000 0.000000 1.000000 
0.084442 -0.259889 0.961939 0.080477 -0.247719 0.965453 
0.738174 0.000000 0.674610 0.747032 0.000000 0.664754 
-0.361804 -0.587779 0.723612 -0.350017 -0.587725 0.729423 
-0.425323 -0.309011 0.850654 -0.425306 -0.309000 0.850642 
-0.597194 -0.433882 0.674615 -0.604358 -0.439100 0.664754 
-0.052790 -0.688185 0.723612 -0.062288 -0.681204 0.729423 
-0.138197 -0.425320 0.894430 -0.141789 -0.436445 0.888455 
-0.221076 -0.160619 0.961939 -0.210730 -0.153081 0.965453 
-0.670817 0.162457 0.723611 -0.667104 0.151250 0.729423 
-0.425323 0.309011 0.850654 -0.425306 0.309000 0.850642 
-0.597194 0.433882 0.674615 -0.604358 0.439100 0.664754 
-0.670817 -0.162457 0.723611 -0.667104 -0.151250 0.729423 
-0.447210 0.000000 0.894429 -0.458907 0.000000 0.888455 
-0.221076 0.160619 0.961939 -0.210730 0.153081 0.965453 
-0.052790 0.688185 0.723612 -0.062288 0.681204 0.729423 
0.162456 0.499995 0.850654 0.162450 0.499985 0.850642 
0.228103 0.702042 0.674615 0.230842 0.710471 0.664754 
-0.361804 0.587779 0.723612 -0.350017 0.587725 0.729423 
-0.138197 0.425320 0.894430 -0.141789 0.436445 0.888455 
0.084442 0.259889 0.961939 0.080477 0.247719 0.965453 
0.638195 0.262864 0.723609 0.628620 0.269723 0.729423 
0.447211 0.525727 0.723612 0.450789 0.514481 0.729423 
0.361800 0.262863 0.894429 0.371258 0.269723 0.888455 
3 0 1 2 
3 1 0 3 
3 4 3 0 
3 3 5 1 
3 0 6 4 
3 6 0 7 
3 2 7 0 
3 7 8 6 
3 9 10 11 
3 10 9 7 
3 8 7 9 
3 7 2 10 
3 12 6 8 
3 6 12 13 
3 14 13 12 
3 13 4 6 
3 15 16 17 
3 17 3 15 
3 4 15 3 
3 3 17 5 
3 15 4 18 
3 18 19 15 
3 16 15 19 
3 19 18 20 
3 21 22 23 
3 23 19 21 
3 20 21 19 
3 19 23 16 
3 24 20 18 
3 18 13 24 
3 14 24 13 
3 13 18 4 
3 25 26 27 
3 26 25 9 
3 8 9 25 
3 9 11 26 
3 25 28 8 
3 28 25 29 
3 27 29 25 
3 29 30 28 
3 31 32 33 
3 32 31 29 
3 30 29 31 
3 29 27 32 
3 34 28 30 
3 28 34 12 
3 14 12 34 
3 12 8 28 
3 35 36 37 
3 36 35 31 
3 30 31 35 
3 31 33 36 
3 35 38 30 
3 38 35 39 
3 37 39 35 
3 39 40 38 
3 41 42 43 
3 42 41 39 
3 40 39 41 
3 39 37 42 
3 44 38 40 
3 38 44 34 
3 14 34 44 
3 34 30 38 
3 45 46 47 
3 46 45 41 
3 40 41 45 
3 41 43 46 
3 45 48 40 
3 48 45 49 
3 47 49 45 
3 49 20 48 
3 21 50 22 
3 50 21 49 
3 20 49 21 
3 49 47 50 
3 24 48 20 
3 48 24 44 
3 14 44 24 
3 44 40 48 
3 51 52 53 
3 53 17 51 
3 16 51 17 
3 17 53 5 
3 51 16 54 
3 54 55 51 
3 52 51 55 
3 55 54 56 
3 57 58 59 
3 59 55 57 
3 56 57 55 
3 55 59 52 
3 60 56 54 
3 54 23 60 
3 22 60 23 
3 23 54 16 
3 61 62 63 
3 63 10 61 
3 2 61 10 
3 10 63 11 
3 61 2 64 
3 64 65 61 
3 62 61 65 
3 65 64 66 
3 67 68 69 
3 69 65 67 
3 66 67 65 
3 65 69 62 
3 70 66 64 
3 64 1 70 
3 5 70 1 
3 1 64 2 
3 71 72 73 
3 73 32 71 
3 27 71 32 
3 32 73 33 
3 71 27 74 
3 74 75 71 
3 72 71 75 
3 75 74 76 
3 77 78 79 
3 79 75 77 
3 76 77 75 
3 75 79 72 
3 80 76 74 
3 74 26 80 
3 11 80 26 
3 26 74 27 
3 81 82 83 
3 83 42 81 
3 37 81 42 
3 42 83 43 
3 81 37 84 
3 84 85 81 
3 82 81 85 
3 85 84 86 
3 87 88 89 
3 89 85 87 
3 86 87 85 
3 85 89 82 
3 90 86 84 
3 84 36 90 
3 33 90 36 
3 36 84 37 
3 91 92 93 
3 93 50 91 
3 47 91 50 
3 50 93 22 
3 91 47 94 
3 94 95 91 
3 92 91 95 
3 95 94 96 
3 97 98 99 
3 99 95 97 
3 96 97 95 
3 95 99 92 
3 100 96 94 
3 94 46 100 
3 43 100 46 
3 46 94 47 
3 101 102 103 
3 102 101 59 
3 52 59 101 
3 59 58 102 
3 101 104 52 
3 104 101 105 
3 103 105 101 
3 105 66 104 
3 67 106 68 
3 106 67 105 
3 66 105 67 
3 105 103 106 
3 70 104 66 
3 104 70 53 
3 5 53 70 
3 53 52 104 
3 107 108 109 
3 108 107 69 
3 62 69 107 
3 69 68 108 
3 107 110 62 
3 110 107 111 
3 109 111 107 
3 111 76 110 
3 77 112 78 
3 112 77 111 
3 76 111 77 
3 111 109 112 
3 80 110 76 
3 110 80 63 
3 11 63 80 
3 63 62 110 
3 113 114 115 
3 114 113 79 
3 72 79 113 
3 79 78 114 
3 113 116 72 
3 116 113 117 
3 115 117 113 
3 117 86 116 
3 87 118 88 
3 118 87 117 
3 86 117 87 
3 117 115 118 
3 90 116 86 
3 116 90 73 
3 33 73 90 
3 73 72 116 
3 119 120 121 
3 120 119 89 
3 82 89 119 
3 89 88 120 
3 119 122 82 
3 122 119 123 
3 121 123 119 
3 123 96 122 
3 97 124 98 
3 124 97 123 
3 96 123 97 
3 123 121 124 
3 100 122 96 
3 122 100 83 
3 43 83 100 
3 83 82 122 
3 125 126 127 
3 126 125 99 
3 92 99 125 
3 99 98 126 
3 125 128 92 
3 128 125 129 
3 127 129 125 
3 129 56 128 
3 57 130 58 
3 130 57 129 
3 56 129 57 
3 129 127 130 
3 60 128 56 
3 128 60 93 
3 22 93 60 
3 93 92 128 
3 131 132 133 
3 133 106 131 
3 103 131 106 
3 106 133 68 
3 131 103 134 
3 134 135 131 
3 132 131 135 
3 135 134 136 
3 137 138 139 
3 139 135 137 
3 136 137 135 
3 135 139 132 
3 140 136 134 
3 134 102 140 
3 58 140 102 
3 102 134 103 
3 141 142 143 
3 143 112 141 
3 109 141 112 
3 112 143 78 
3 141 109 144 
3 144 145 141 
3 142 141 145 
3 145 144 132 
3 139 138 146 
3 146 145 139 
3 132 139 145 
3 145 146 142 
3 133 132 144 
3 144 108 133 
3 68 133 108 
3 108 144 109 
3 147 148 149 
3 149 118 147 
3 115 147 118 
3 118 149 88 
3 147 115 150 
3 150 151 147 
3 148 147 151 
3 151 150 142 
3 146 138 152 
3 152 151 146 
3 142 146 151 
3 151 152 148 
3 143 142 150 
3 150 114 143 
3 78 143 114 
3 114 150 115 
3 153 154 155 
3 155 124 153 
3 121 153 124 
3 124 155 98 
3 153 121 156 
3 156 157 153 
3 154 153 157 
3 157 156 148 
3 152 138 158 
3 158 157 152 
3 148 152 157 
3 157 158 154 
3 149 148 156 
3 156 120 149 
3 88 149 120 
3 120 156 121 
3 159 136 140 
3 140 130 159 
3 127 159 130 
3 130 140 58 
3 159 127 160 
3 160 161 159 
3 136 159 161 
3 161 160 154 
3 158 138 137 
3 137 161 158 
3 154 158 161 
3 161 137 136 
3 155 154 160 
3 160 126 155 
3 98 155 126 
3 126 160 127 
