<?xml version="1.0" encoding="UTF-8" standalone="no"?>
<!-- Created with Inkscape (http://www.inkscape.org/) -->

<svg
   width="64.0px"
   height="64.0px"
   viewBox="0 0 64.0 64.0"
   version="1.1"
   id="SVGRoot"
   sodipodi:docname="toolbar_radius.svg"
   inkscape:export-xdpi="96"
   inkscape:export-ydpi="96"
   inkscape:version="1.1 (c68e22c387, 2021-05-23)"
   xmlns:inkscape="http://www.inkscape.org/namespaces/inkscape"
   xmlns:sodipodi="http://sodipodi.sourceforge.net/DTD/sodipodi-0.dtd"
   xmlns="http://www.w3.org/2000/svg"
   xmlns:svg="http://www.w3.org/2000/svg">
  <sodipodi:namedview
     id="namedview14"
     pagecolor="#ffffff"
     bordercolor="#666666"
     borderopacity="1.0"
     inkscape:pageshadow="2"
     inkscape:pageopacity="0.0"
     inkscape:pagecheckerboard="0"
     inkscape:document-units="px"
     showgrid="true"
     inkscape:zoom="2.8578563"
     inkscape:cx="41.464646"
     inkscape:cy="7.1732088"
     inkscape:window-width="1920"
     inkscape:window-height="991"
     inkscape:window-x="-9"
     inkscape:window-y="-9"
     inkscape:window-maximized="1"
     inkscape:current-layer="layer1">
    <inkscape:grid
       type="xygrid"
       id="grid20" />
  </sodipodi:namedview>
  <defs
     id="defs9" />
  <g
     inkscape:label="Layer 1"
     inkscape:groupmode="layer"
     id="layer1">
    <path
       id="path1006"
       style="fill:#ffffff;stroke:none;stroke-opacity:1;fill-opacity:1"
       d="M 32.251953 5.4511719 A 27.5 27.5 0 0 0 4.7519531 32.951172 A 27.5 27.5 0 0 0 32.251953 60.451172 A 27.5 27.5 0 0 0 59.751953 32.951172 A 27.5 27.5 0 0 0 32.251953 5.4511719 z M 32.039062 10.763672 A 22.113844 22.113844 0 0 1 54.152344 32.876953 A 22.113844 22.113844 0 0 1 32.039062 54.992188 A 22.113844 22.113844 0 0 1 9.9257812 32.876953 A 22.113844 22.113844 0 0 1 32.039062 10.763672 z " />
    <rect
       style="fill:#ffffff;fill-opacity:1;stroke:none;stroke-opacity:1"
       id="rect1427"
       width="5"
       height="5"
       x="30"
       y="30" />
    <rect
       style="fill:#ffffff;fill-opacity:1;stroke:none;stroke-opacity:1"
       id="rect1429"
       width="5"
       height="5"
       x="30"
       y="40" />
    <rect
       style="fill:#ffffff;fill-opacity:1;stroke:none;stroke-opacity:1"
       id="rect1431"
       width="5"
       height="5"
       x="30"
       y="50" />
  </g>
</svg>
